<?xml version="1.0" encoding="UTF-8" standalone="no"?>
<svg
   xmlns:dc="http://purl.org/dc/elements/1.1/"
   xmlns:cc="http://creativecommons.org/ns#"
   xmlns:rdf="http://www.w3.org/1999/02/22-rdf-syntax-ns#"
   xmlns:svg="http://www.w3.org/2000/svg"
   xmlns="http://www.w3.org/2000/svg"
   xmlns:sodipodi="http://sodipodi.sourceforge.net/DTD/sodipodi-0.dtd"
   xmlns:inkscape="http://www.inkscape.org/namespaces/inkscape"
   width="123.354pt"
   height="75.574081pt"
   viewBox="0 0 123.35399 75.57408"
   fill-rule="evenodd"
   version="1.1"
   id="svg37"
   sodipodi:docname="logo.svg"
   inkscape:version="1.0.1 (3bc2e813f5, 2020-09-07)">
  <metadata
     id="metadata43">
    <rdf:RDF>
      <cc:Work
         rdf:about="">
        <dc:format>image/svg+xml</dc:format>
        <dc:type
           rdf:resource="http://purl.org/dc/dcmitype/StillImage" />
        <dc:title></dc:title>
      </cc:Work>
    </rdf:RDF>
  </metadata>
  <defs
     id="defs41" />
  <sodipodi:namedview
     pagecolor="#ffffff"
     bordercolor="#666666"
     borderopacity="1"
     objecttolerance="10"
     gridtolerance="10"
     guidetolerance="10"
     inkscape:pageopacity="0"
     inkscape:pageshadow="2"
     inkscape:window-width="1856"
     inkscape:window-height="1057"
     id="namedview39"
     showgrid="false"
     fit-margin-top="0"
     fit-margin-left="0"
     fit-margin-right="0"
     fit-margin-bottom="0"
     inkscape:zoom="1"
     inkscape:cx="78.238669"
     inkscape:cy="50.365629"
     inkscape:window-x="56"
     inkscape:window-y="-8"
     inkscape:window-maximized="1"
     inkscape:current-layer="svg37" />
  <g
     id="g35"
     transform="matrix(0.25,0,0,0.25,-13.482,-67.452414)"
     style="stroke-width:4">
    <g
       id="g33"
       style="stroke-width:4">
      <defs
         id="defs11">
        <linearGradient
           id="1"
           x1="230.91"
           y1="471.45599"
           x2="230.91"
           y2="367.17999"
           gradientUnits="userSpaceOnUse"
           gradientTransform="matrix(4,0,0,4,53.928,269.80966)">
          <stop
             offset="0"
             style="stop-color:#c5c7c9"
             id="stop2" />
          <stop
             offset="0.0533844"
             style="stop-color:#c5c7c9"
             id="stop4" />
          <stop
             offset="0.954091"
             style="stop-color:#ffffff"
             id="stop6" />
          <stop
             offset="1"
             style="stop-color:#ffffff"
             id="stop8" />
        </linearGradient>
      </defs>
      <path
         style="fill:url(#1);stroke:none;stroke-width:4"
         d="m 299.952,458.49 v -35.136 c 10.368,-4.752 20.736,-9.432 30.96,-14.184 5.112,-2.304 12.888,-2.808 17.208,-1.08 15.84,6.408 33.12,13.176 51.912,20.808 5.76,2.376 5.76,6.696 -0.216,9.576 l -11.088,5.4 0.648,0.288 c -16.776,8.136 -33.768,16.416 -50.904,24.768 -3.384,1.656 -7.632,2.448 -11.592,2.304 -3.816,0.072 -7.488,-0.648 -9.936,-2.232 -5.832,-3.6 -11.52,-7.128 -16.992,-10.512 z m 0,-41.904 c 7.848,-3.6 15.624,-7.2 23.4,-10.728 5.112,-2.376 6.048,-5.544 2.016,-7.2 -8.928,-3.6 -17.352,-6.984 -25.416,-10.296 z m -50.04,-24.192 c 6.84,-2.952 13.68,-5.976 20.448,-8.928 4.392,-1.944 5.688,-4.392 2.88,-5.544 -8.208,-3.312 -15.984,-6.48 -23.328,-9.432 z m 50.04,-4.032 v 28.224 c -9.648,4.392 -19.368,8.856 -29.232,13.392 -5.256,2.448 -12.24,2.736 -15.552,0.72 l -5.256,-3.312 v -30.168 c 3.384,-1.44 6.696,-2.952 10.008,-4.392 l 0.072,0.072 16.344,-7.2 c 4.464,-2.016 10.584,-2.592 13.68,-1.368 3.24,1.368 6.624,2.664 9.936,4.032 z m 0,34.992 c -7.488,3.456 -15.048,6.984 -22.608,10.512 -5.4,2.448 -6.84,6.336 -3.24,8.568 8.136,5.04 16.776,10.44 25.848,16.056 z M 225,403.338 c 8.352,-3.672 16.632,-7.272 24.912,-10.944 V 368.49 l -2.16,-0.864 c -2.304,-0.936 -7.344,-0.36 -11.232,1.368 -12.816,5.4 -25.704,10.872 -38.592,16.416 v 9.792 c 4.68,2.952 9.576,5.976 14.616,9.216 2.304,1.368 7.848,0.936 12.456,-1.08 z m 24.912,-6.12 v 30.168 c -8.352,-5.256 -16.272,-10.08 -23.616,-14.76 -1.44,-0.864 -1.512,-2.088 -0.504,-3.456 0.72,-1.08 2.232,-2.304 4.464,-3.24 6.624,-2.952 13.176,-5.832 19.656,-8.712 z m -51.984,18 V 404.13 c 1.872,1.296 3.816,2.592 5.76,3.888 1.08,0.72 1.152,1.8 0.36,2.952 v 0 0 c -0.72,1.224 -2.376,2.52 -4.824,3.6 z m 0,-29.808 -1.944,0.792 c -4.104,1.728 -5.904,4.104 -4.032,5.256 l 5.976,3.744 z m 0,18.72 v 11.088 c -15.192,6.696 -30.6,13.536 -46.08,20.52 -4.68,2.088 -9.936,2.304 -11.52,0.576 -4.032,-4.608 -7.92,-8.928 -11.592,-13.104 v -7.848 c 0.72,-0.432 1.512,-0.864 2.376,-1.296 14.112,-6.12 28.152,-12.168 42.048,-18.216 4.032,-1.728 8.784,-2.232 10.512,-1.08 l 6.696,4.536 0.216,-0.072 c 2.376,1.584 4.824,3.24 7.344,4.896 z m -69.192,41.616 c 2.736,-1.944 3.96,-4.176 2.808,-5.544 -0.936,-1.152 -1.872,-2.304 -2.808,-3.456 z m 0,-30.384 v 7.848 c -1.008,-1.08 -2.016,-2.16 -2.952,-3.24 -1.008,-1.08 0.288,-3.024 2.952,-4.608 z m 0,21.384 c -3.888,-4.68 -7.488,-9.072 -10.944,-13.248 -1.152,-1.44 -5.544,-1.152 -9.792,0.72 -14.4,6.264 -28.944,12.672 -43.704,19.08 -4.392,1.944 -7.416,4.896 -6.696,6.624 0.36,1.08 0.864,2.16 1.296,3.312 l -0.648,0.216 c 2.016,5.184 4.176,10.656 6.48,16.416 0.504,1.152 2.016,1.656 4.104,1.584 2.016,0.072 4.608,-0.432 7.272,-1.656 16.704,-7.488 33.264,-14.976 49.608,-22.32 1.08,-0.504 2.16,-1.08 3.024,-1.728 z"
         id="path13" />
      <g
         id="g27"
         style="stroke-width:4">
        <path
           style="fill:#e8dc1f;stroke:none;stroke-width:4"
           d="m 225.072,339.258 c 15.264,-12.888 30.384,-25.632 45.36,-38.16 4.464,-3.672 5.688,-8.496 2.88,-10.656 -9.072,-7.056 -17.496,-13.608 -25.488,-19.8 -2.304,-1.8 -7.344,-0.576 -11.232,2.664 -13.464,10.944 -27,21.96 -40.608,33.048 -4.032,3.312 -5.832,7.848 -4.032,10.008 6.48,7.776 13.392,16.056 20.664,24.84 2.304,2.736 7.848,1.872 12.456,-1.944 z"
           id="path15" />
        <path
           style="fill:#5d5d53;stroke:none;stroke-width:4"
           d="m 337.32,465.114 c 21.168,-19.872 42.048,-39.312 62.64,-58.32 5.976,-5.544 6.048,-13.896 0.216,-18.432 -18.792,-14.616 -36.072,-27.864 -51.912,-40.032 -4.392,-3.384 -12.096,-2.448 -17.208,2.088 -17.712,15.552 -35.568,31.32 -53.64,47.448 -5.4,4.752 -6.84,12.168 -3.24,16.416 13.032,15.48 27.288,32.4 42.84,50.976 4.824,5.76 14.112,5.688 20.304,-0.144 z"
           id="path17" />
        <path
           style="fill:#8db32d;stroke:none;stroke-width:4"
           d="m 125.784,371.154 c 4.536,9.792 9.432,20.16 14.544,31.392 1.584,3.384 6.84,2.952 11.592,-1.152 15.912,-13.752 31.752,-27.216 47.376,-40.608 4.536,-3.888 6.48,-9.432 4.392,-12.24 -7.056,-9.216 -13.752,-17.712 -19.944,-25.704 -1.728,-2.304 -6.48,-1.368 -10.512,2.016 -13.896,11.52 -27.936,23.112 -42.12,34.92 -4.176,3.528 -6.552,8.64 -5.328,11.376 z"
           id="path19" />
        <path
           style="fill:#5d5d53;stroke:none;stroke-width:4"
           d="m 57.6,428.61 c 2.448,11.88 4.968,24.624 7.776,38.232 0.864,4.176 5.76,4.176 10.728,-0.072 16.776,-14.4 33.264,-28.728 49.608,-42.912 4.752,-4.032 7.416,-10.296 5.904,-13.824 -4.968,-11.448 -9.504,-22.104 -13.752,-32.04 -1.224,-2.808 -5.616,-2.232 -9.864,1.368 -14.4,12.096 -28.944,24.264 -43.704,36.648 -4.392,3.672 -7.416,9.288 -6.696,12.6 z"
           id="path21" />
        <path
           style="fill:#8db32d;stroke:none;stroke-width:4"
           d="m 270.864,390.45 c 17.784,-15.768 35.28,-31.248 52.632,-46.44 5.112,-4.464 5.976,-10.656 2.016,-13.752 -12.744,-9.864 -24.48,-19.008 -35.352,-27.432 -3.096,-2.448 -9.216,-1.296 -13.752,2.52 -15.264,12.888 -30.6,25.92 -46.224,39.096 -4.608,3.96 -6.336,9.576 -3.816,12.6 8.856,10.728 18.504,22.248 28.944,34.776 3.24,3.888 10.224,3.24 15.552,-1.368 z"
           id="path23" />
        <path
           style="fill:none;stroke:none;stroke-width:4"
           d="m 291.024,372.09 c 5.976,-5.328 11.88,-10.584 17.856,-15.768 -6.192,-4.752 -12.096,-9.288 -17.856,-13.68 z m 0,60.912 V 386.49 c 8.856,-7.92 17.712,-15.84 26.568,-23.616 21.24,16.128 45.072,34.272 71.928,54.792 -16.776,15.552 -33.768,31.32 -50.904,47.448 -6.264,5.904 -15.624,5.904 -20.448,0.144 -9.576,-11.376 -18.648,-22.104 -27.144,-32.256 z m -20.016,-43.344 c 6.696,-5.904 13.32,-11.736 20.016,-17.568 v -29.448 c -11.088,-8.424 -21.384,-16.272 -31.032,-23.616 -6.768,5.688 -13.536,11.448 -20.376,17.208 v 36 c 5.04,6.048 10.368,12.312 15.84,18.864 3.24,3.816 10.296,3.168 15.552,-1.44 z m 20.016,-3.168 v 46.512 c -5.544,-6.48 -10.872,-12.672 -15.984,-18.792 -3.672,-4.32 -2.16,-11.664 3.24,-16.416 4.248,-3.816 8.496,-7.56 12.744,-11.304 z m -51.408,-60.12 v -18.936 c 3.744,0.36 7.056,1.44 9.576,3.384 1.584,1.224 3.096,2.376 4.68,3.6 -4.752,3.96 -9.504,7.92 -14.256,11.952 z m 0,9.864 -9.288,7.848 c -4.608,3.96 -6.336,9.504 -3.816,12.528 4.176,4.968 8.568,10.224 13.104,15.624 z m 0,-28.8 v 18.936 c -4.752,4.032 -9.504,8.064 -14.256,12.096 -4.536,3.816 -10.152,4.68 -12.456,1.944 -3.672,-4.464 -7.344,-8.784 -10.8,-12.96 v -5.04 c 1.512,-1.224 3.024,-2.376 4.464,-3.528 10.512,-8.136 23.328,-12.384 33.048,-11.448 z m -37.512,50.112 v -11.592 l 1.656,2.232 c 1.728,2.16 0.864,5.976 -1.656,9.36 z m 0,-35.136 v 5.04 c -0.864,-1.008 -1.728,-2.088 -2.592,-3.096 0.864,-0.648 1.728,-1.296 2.592,-1.944 z m 0,23.544 v 11.592 c -0.72,1.008 -1.584,1.944 -2.592,2.736 -15.624,13.32 -31.392,26.784 -47.376,40.464 -4.68,4.032 -9.864,4.536 -11.52,1.08 -3.456,-7.344 -6.84,-14.472 -10.008,-21.24 v -2.304 c 20.16,-15.84 40.104,-31.536 59.976,-47.016 3.672,4.752 7.56,9.648 11.52,14.688 z m -71.496,70.416 v -7.2 l 0.432,0.864 c 0.72,1.656 0.504,3.96 -0.432,6.336 z m 0,-38.088 v 2.304 l -0.792,-1.656 z m 0,30.888 v 7.2 c -1.008,2.664 -2.952,5.328 -5.472,7.56 -16.416,14.112 -32.904,28.368 -49.68,42.84 -4.968,4.248 -9.792,4.248 -10.728,0.072 -2.304,-11.088 -4.392,-21.528 -6.48,-31.464 21.024,-16.488 41.832,-32.976 62.424,-49.32 3.168,7.344 6.48,15.048 9.936,23.112 z"
           id="path25" />
      </g>
      <path
         style="fill:#454545;stroke:none;stroke-width:4"
         d="m 81.648,571.386 v -85.968 h -27.72 v 85.968 z m 63.36,0 v -64.584 h 30.744 V 485.418 H 86.544 v 21.384 h 30.744 v 64.584 z"
         id="path29" />
      <path
         style="fill:#8db32d;stroke:none;stroke-width:4"
         d="M 512.784,572.106 V 561.09 c 5.4,0 11.16,-0.648 15.408,-5.4 4.32,-4.824 4.32,-11.088 4.32,-16.704 0,-4.824 0.36,-12.168 -4.176,-17.208 -4.176,-4.68 -10.44,-5.184 -15.552,-5.184 v -11.016 c 7.704,0 19.152,0.216 26.208,6.84 7.488,6.984 8.352,19.296 8.352,26.136 0,13.752 -3.528,22.032 -8.352,26.568 -6.984,6.48 -18.72,6.984 -26.208,6.984 z m 0,-66.528 v 11.016 h -0.072 c -4.608,0 -11.664,0.504 -15.696,5.184 -4.032,4.68 -4.032,13.032 -4.032,17.208 0,5.4 0.144,12.024 4.176,16.704 4.176,4.752 10.44,5.4 15.552,5.4 h 0.072 v 11.016 h -0.072 c -7.704,0 -19.152,-0.432 -26.208,-6.984 -7.776,-7.128 -8.352,-19.44 -8.352,-26.064 0,-7.344 0.864,-19.656 8.352,-26.64 7.056,-6.624 18.504,-6.84 26.208,-6.84 z M 415.8,571.386 v -11.088 h 10.728 c 0.648,0 2.88,0 3.816,-0.936 1.152,-1.008 1.152,-3.6 1.152,-4.536 V 517.314 H 415.8 v -11.016 h 15.696 v -20.88 h 14.328 v 74.52 c 0,2.808 -0.576,6.264 -1.944,8.136 -2.232,3.024 -6.048,3.312 -9,3.312 z m 39.816,0 h 14.4 v -65.088 h -14.4 z m 14.4,-74.52 v -11.448 h -14.4 v 11.448 z m -278.28,74.52 h 52.776 c 5.688,0 11.088,-0.648 15.336,-6.12 3.6,-4.608 4.32,-10.584 4.32,-15.984 0,-4.032 -0.504,-11.664 -5.616,-16.56 -2.592,-2.448 -6.552,-4.32 -12.312,-6.192 l -31.392,-9.936 c -6.912,-2.16 -7.992,-5.904 -7.992,-9.72 0,-1.584 0.072,-4.608 2.16,-6.624 2.016,-1.8 4.536,-1.944 6.768,-1.944 h 43.992 V 485.418 H 210.24 c -4.176,0 -9.648,0.648 -14.112,4.824 -4.896,4.536 -5.472,10.8 -5.472,15.912 0,4.824 0.432,11.592 4.392,16.2 3.456,4.176 8.856,6.048 10.152,6.408 l 33.912,10.656 c 7.488,2.376 8.352,6.264 8.352,9.72 0,2.952 -0.36,9.36 -8.064,9.36 H 191.736 Z M 415.8,506.298 v 11.016 h -0.792 c -3.816,0 -8.928,0.792 -12.024,5.832 -1.512,2.304 -2.808,6.336 -2.808,15.192 0,10.224 1.224,13.392 1.728,14.616 2.808,6.48 8.928,7.344 13.104,7.344 h 0.792 v 11.088 h -6.552 c -6.552,0 -15.984,-1.584 -20.736,-12.888 -1.656,-3.816 -3.24,-9.936 -3.24,-20.664 0,-6.84 0.648,-15.48 5.04,-21.816 6.408,-9.216 16.56,-9.72 21.888,-9.72 z m -106.128,65.088 v -11.088 h -3.6 c -2.52,0 -7.992,-0.072 -11.088,-2.808 -4.176,-3.456 -3.816,-9.576 -3.816,-13.968 v -26.208 h 18.144 v -11.016 h -18.144 v -20.88 H 276.84 v 20.88 h -9 v 11.016 h 9 v 32.832 c 0,8.208 2.304,13.032 6.48,16.416 4.032,3.312 8.712,4.824 17.352,4.824 z m 67.536,-11.664 v -53.424 h -14.4 v 48.744 c 0,1.224 0,2.736 -1.224,3.96 -0.864,0.864 -2.232,1.296 -4.176,1.296 h -11.88 c -5.184,0 -9.072,-0.576 -11.664,-4.176 -1.872,-2.448 -2.448,-5.616 -2.448,-11.376 v -38.448 h -14.4 v 41.04 c 0,7.92 1.224,14.472 6.624,19.152 4.464,3.744 9.504,4.896 16.992,4.896 h 22.896 c 3.456,0 7.416,-0.144 10.224,-2.448 3.312,-2.736 3.456,-6.912 3.456,-9.216 z"
         id="path31" />
    </g>
  </g>
</svg>
